<?xml version="1.0" encoding="UTF-8"?>
<svg xmlns="http://www.w3.org/2000/svg" xmlns:xlink="http://www.w3.org/1999/xlink" width="50px" height="50px" viewBox="0 0 50 50" version="1.1">
<g id="surface1">
<path style=" stroke:none;fill-rule:evenodd;fill:rgb(24.313725%,45.882353%,76.470588%);fill-opacity:1;" d="M 25 0.519531 C 11.195312 0.519531 0 11.757812 0 25.621094 C 0 36.710938 7.164062 46.117188 17.097656 49.4375 C 18.347656 49.667969 18.804688 48.890625 18.804688 48.226562 C 18.804688 47.628906 18.78125 46.050781 18.769531 43.957031 C 11.816406 45.476562 10.347656 40.59375 10.347656 40.59375 C 9.210938 37.695312 7.574219 36.921875 7.574219 36.921875 C 5.304688 35.363281 7.746094 35.394531 7.746094 35.394531 C 10.253906 35.574219 11.574219 37.984375 11.574219 37.984375 C 13.804688 41.816406 17.425781 40.710938 18.851562 40.066406 C 19.078125 38.445312 19.722656 37.339844 20.4375 36.710938 C 14.886719 36.078125 9.050781 33.925781 9.050781 24.308594 C 9.050781 21.566406 10.023438 19.328125 11.625 17.574219 C 11.367188 16.9375 10.507812 14.386719 11.867188 10.929688 C 11.867188 10.929688 13.96875 10.257812 18.742188 13.503906 C 20.738281 12.945312 22.875 12.667969 25 12.65625 C 27.125 12.667969 29.265625 12.945312 31.261719 13.503906 C 36.03125 10.257812 38.128906 10.929688 38.128906 10.929688 C 39.492188 14.386719 38.632812 16.9375 38.375 17.574219 C 39.980469 19.328125 40.945312 21.566406 40.945312 24.308594 C 40.945312 33.949219 35.101562 36.070312 29.53125 36.691406 C 30.429688 37.46875 31.230469 39 31.230469 41.339844 C 31.230469 44.695312 31.199219 47.402344 31.199219 48.226562 C 31.199219 48.898438 31.648438 49.679688 32.917969 49.433594 C 42.84375 46.105469 50 36.707031 50 25.621094 C 50 11.757812 38.804688 0.519531 25 0.519531 "/>
</g>
</svg>
