<?xml version="1.0" encoding="UTF-8"?>
<svg xmlns="http://www.w3.org/2000/svg" xmlns:xlink="http://www.w3.org/1999/xlink" width="50px" height="50px" viewBox="0 0 50 50" version="1.1">
<g id="surface1">
<path style=" stroke:none;fill-rule:evenodd;fill:rgb(0%,84.705882%,100%);fill-opacity:1;" d="M 28.5 24.964844 C 28.5 26.898438 26.933594 28.464844 25 28.464844 C 23.070312 28.464844 21.503906 26.898438 21.503906 24.964844 C 21.503906 23.03125 23.070312 21.464844 25 21.464844 C 26.933594 21.464844 28.5 23.03125 28.5 24.964844 Z M 28.5 24.964844 "/>
<path style=" stroke:none;fill-rule:evenodd;fill:rgb(0%,84.705882%,100%);fill-opacity:1;" d="M 25.257812 17.589844 C 31.222656 17.632812 37.730469 18.066406 42.199219 22.050781 C 42.328125 22.167969 42.457031 22.289062 42.578125 22.414062 C 43.632812 23.488281 44.183594 25.222656 43.332031 26.652344 C 41.585938 29.582031 37.683594 30.859375 33.90625 31.644531 C 28.253906 32.824219 22.34375 32.832031 16.695312 31.796875 C 13.445312 31.199219 10.121094 30.152344 7.808594 27.964844 C 6.910156 27.113281 6.140625 25.992188 6.261719 24.746094 C 6.457031 22.730469 8.394531 21.433594 10.023438 20.558594 C 14.546875 18.125 20.058594 17.578125 25.257812 17.589844 Z M 24.824219 18.507812 C 19.179688 18.546875 13.074219 18.90625 8.714844 22.515625 C 8.5625 22.640625 8.414062 22.773438 8.273438 22.910156 C 8.183594 23 8.09375 23.09375 8.007812 23.1875 C 7.246094 24.046875 6.980469 25.425781 7.703125 26.460938 C 8.429688 27.496094 9.53125 28.246094 10.667969 28.859375 C 14.917969 31.140625 19.9375 31.546875 24.832031 31.566406 C 29.789062 31.582031 34.898438 31.132812 39.273438 28.867188 C 41.019531 27.964844 42.980469 26.640625 42.910156 24.933594 C 42.847656 23.367188 41.320312 22.402344 40.179688 21.710938 C 39.867188 21.523438 39.550781 21.351562 39.226562 21.1875 C 34.882812 19.011719 29.789062 18.496094 24.824219 18.507812 Z M 24.824219 18.507812 "/>
<path style=" stroke:none;fill-rule:evenodd;fill:rgb(0%,84.705882%,100%);fill-opacity:1;" d="M 32.902344 8.363281 C 35.085938 8.417969 36.214844 11.039062 36.363281 12.976562 C 36.394531 13.363281 36.40625 13.75 36.398438 14.136719 C 36.394531 14.554688 36.371094 14.972656 36.335938 15.390625 C 35.875 20.558594 33.515625 25.476562 30.738281 30.019531 C 28.023438 34.464844 24.710938 38.894531 20.203125 40.953125 C 18.714844 41.636719 16.941406 42.054688 15.625 41.296875 C 13.816406 40.253906 13.617188 37.816406 13.652344 35.96875 C 13.660156 35.515625 13.691406 35.0625 13.738281 34.609375 C 14.433594 27.921875 17.820312 21.585938 22.0625 16.128906 C 24.539062 12.945312 27.484375 9.785156 31.152344 8.644531 C 31.730469 8.460938 32.1875 8.351562 32.902344 8.363281 Z M 32.796875 9.277344 C 30.234375 9.316406 27.9375 11.214844 25.898438 13.1875 C 20.542969 18.375 16.597656 25.269531 15.011719 32.503906 C 14.886719 33.0625 14.785156 33.625 14.710938 34.195312 C 14.652344 34.632812 14.609375 35.078125 14.585938 35.519531 C 14.566406 35.875 14.5625 36.226562 14.570312 36.582031 C 14.578125 36.859375 14.597656 37.132812 14.628906 37.410156 C 14.652344 37.621094 14.679688 37.828125 14.71875 38.035156 C 14.75 38.191406 14.78125 38.34375 14.820312 38.496094 C 14.851562 38.621094 14.890625 38.742188 14.929688 38.863281 C 15.25 39.828125 16.074219 40.746094 17.179688 40.777344 C 19.757812 40.847656 22.183594 38.96875 24.285156 36.925781 C 27.96875 33.335938 30.714844 28.832031 32.859375 24.09375 C 34.59375 20.269531 36.175781 16.109375 35.292969 11.898438 C 35.257812 11.742188 35.21875 11.582031 35.175781 11.425781 C 35.136719 11.300781 35.097656 11.171875 35.050781 11.050781 C 34.707031 10.113281 33.898438 9.273438 32.796875 9.277344 Z M 32.796875 9.277344 "/>
<path style=" stroke:none;fill-rule:evenodd;fill:rgb(0%,84.705882%,100%);fill-opacity:1;" d="M 17.273438 8.394531 C 20.058594 8.449219 22.558594 10.339844 24.777344 12.457031 C 28.828125 16.316406 31.816406 21.230469 34.085938 26.402344 C 35.839844 30.40625 37.457031 34.902344 36.019531 39.128906 C 35.570312 40.460938 34.425781 41.679688 32.898438 41.710938 C 30.101562 41.765625 27.507812 39.734375 25.257812 37.542969 C 19.613281 32.046875 15.421875 24.792969 13.988281 17.097656 C 13.882812 16.550781 13.800781 15.996094 13.746094 15.4375 C 13.699219 14.984375 13.671875 14.527344 13.664062 14.070312 C 13.65625 13.699219 13.664062 13.332031 13.691406 12.964844 C 13.707031 12.71875 13.730469 12.476562 13.765625 12.230469 C 13.796875 12.003906 13.839844 11.777344 13.890625 11.550781 C 13.921875 11.402344 13.960938 11.253906 14.003906 11.109375 C 14.425781 9.667969 15.519531 8.386719 17.273438 8.394531 Z M 17.167969 9.3125 C 15.535156 9.347656 14.789062 11.269531 14.640625 12.621094 C 14.609375 12.898438 14.589844 13.175781 14.582031 13.453125 C 14.570312 13.8125 14.578125 14.167969 14.59375 14.523438 C 14.851562 19.679688 17.15625 24.664062 19.9375 29.226562 C 22.554688 33.523438 25.71875 37.804688 30.066406 40.003906 C 31.324219 40.640625 32.851562 41.140625 33.9375 40.539062 C 35.296875 39.785156 35.464844 37.992188 35.535156 36.652344 C 35.554688 36.289062 35.558594 35.925781 35.546875 35.558594 C 35.53125 35.101562 35.496094 34.644531 35.441406 34.191406 C 34.941406 29.941406 33.058594 25.921875 30.898438 22.125 C 28.210938 17.398438 24.914062 12.691406 20.253906 10.230469 C 19.289062 9.71875 18.242188 9.304688 17.167969 9.3125 Z M 17.167969 9.3125 "/>
</g>
</svg>
