<?xml version="1.0" encoding="UTF-8"?>
<svg xmlns="http://www.w3.org/2000/svg" xmlns:xlink="http://www.w3.org/1999/xlink" width="50px" height="50px" viewBox="0 0 50 50" version="1.1">
<g id="surface1">
<path style=" stroke:none;fill-rule:nonzero;fill:rgb(5.882353%,5.882353%,5.882353%);fill-opacity:1;" d="M 25 37.5 C 23.847656 37.5 22.917969 38.433594 22.917969 39.582031 C 22.917969 40.734375 23.847656 41.667969 25 41.667969 C 26.152344 41.667969 27.082031 40.734375 27.082031 39.582031 C 27.082031 38.433594 26.152344 37.5 25 37.5 Z M 25 37.5 "/>
<path style=" stroke:none;fill-rule:evenodd;fill:rgb(5.882353%,5.882353%,5.882353%);fill-opacity:1;" d="M 39.582031 8.332031 C 39.582031 4.882812 36.785156 2.082031 33.332031 2.082031 L 16.667969 2.082031 C 13.214844 2.082031 10.417969 4.882812 10.417969 8.332031 L 10.417969 41.667969 C 10.417969 45.117188 13.214844 47.917969 16.667969 47.917969 L 33.332031 47.917969 C 36.785156 47.917969 39.582031 45.117188 39.582031 41.667969 Z M 35.417969 8.332031 C 35.417969 7.183594 34.484375 6.25 33.332031 6.25 L 16.667969 6.25 C 15.515625 6.25 14.582031 7.183594 14.582031 8.332031 L 14.582031 31.25 L 35.417969 31.25 Z M 14.582031 41.667969 L 14.582031 35.417969 L 35.417969 35.417969 L 35.417969 41.667969 C 35.417969 42.816406 34.484375 43.75 33.332031 43.75 L 16.667969 43.75 C 15.515625 43.75 14.582031 42.816406 14.582031 41.667969 Z M 14.582031 41.667969 "/>
</g>
</svg>
