<?xml version="1.0" encoding="UTF-8"?>
<svg xmlns="http://www.w3.org/2000/svg" xmlns:xlink="http://www.w3.org/1999/xlink" width="50px" height="50px" viewBox="0 0 50 50" version="1.1">
<g id="surface1">
<path style=" stroke:none;fill-rule:nonzero;fill:rgb(25.098039%,70.196078%,87.843137%);fill-opacity:1;" d="M 25 0 C 11.191406 0 0 11.191406 0 25 C 0 38.808594 11.191406 50 25 50 C 38.808594 50 50 38.808594 50 25 C 50 11.191406 38.808594 0 25 0 Z M 25 0 "/>
<path style=" stroke:none;fill-rule:nonzero;fill:rgb(100%,100%,100%);fill-opacity:1;" d="M 37.164062 14.382812 L 32.699219 36.894531 C 32.699219 36.894531 32.074219 38.457031 30.359375 37.707031 L 20.054688 29.804688 L 16.304688 27.996094 L 10 25.871094 C 10 25.871094 9.03125 25.527344 8.9375 24.777344 C 8.84375 24.03125 10.03125 23.625 10.03125 23.625 L 35.105469 13.789062 C 35.105469 13.789062 37.164062 12.882812 37.164062 14.382812 "/>
<path style=" stroke:none;fill-rule:nonzero;fill:rgb(82.352941%,89.803922%,94.509804%);fill-opacity:1;" d="M 19.261719 36.640625 C 19.261719 36.640625 18.960938 36.613281 18.585938 35.425781 C 18.210938 34.238281 16.304688 27.996094 16.304688 27.996094 L 31.449219 18.378906 C 31.449219 18.378906 32.324219 17.847656 32.292969 18.378906 C 32.292969 18.378906 32.449219 18.472656 31.980469 18.910156 C 31.511719 19.347656 20.085938 29.617188 20.085938 29.617188 "/>
<path style=" stroke:none;fill-rule:nonzero;fill:rgb(70.980392%,81.176471%,89.411765%);fill-opacity:1;" d="M 24.003906 32.835938 L 19.929688 36.550781 C 19.929688 36.550781 19.609375 36.792969 19.261719 36.640625 L 20.042969 29.738281 "/>
</g>
</svg>
