<?xml version="1.0" encoding="UTF-8"?>
<svg xmlns="http://www.w3.org/2000/svg" xmlns:xlink="http://www.w3.org/1999/xlink" width="50px" height="50px" viewBox="0 0 50 50" version="1.1">
<g id="surface1">
<path style=" stroke:none;fill-rule:nonzero;fill:rgb(45.098039%,81.568627%,95.686275%);fill-opacity:1;" d="M 20.769531 29.261719 C 20.507812 29.574219 20.132812 29.757812 19.726562 29.773438 C 19.324219 29.792969 18.933594 29.640625 18.644531 29.355469 L 14.773438 25.480469 L 5.03125 25.480469 L 19.574219 39.433594 L 45.378906 9.921875 L 37.078125 9.921875 Z M 20.769531 29.261719 "/>
<path style=" stroke:none;fill-rule:nonzero;fill:rgb(23.921569%,40.784314%,53.72549%);fill-opacity:1;" d="M 49.871094 7.882812 C 49.636719 7.367188 49.125 7.039062 48.558594 7.039062 L 36.410156 7.039062 C 35.984375 7.039062 35.578125 7.226562 35.304688 7.550781 L 19.574219 26.203125 L 16.390625 23.015625 C 16.121094 22.746094 15.753906 22.59375 15.371094 22.59375 L 1.441406 22.59375 C 0.855469 22.59375 0.324219 22.953125 0.105469 23.5 C -0.117188 24.046875 0.0195312 24.671875 0.445312 25.078125 L 18.667969 42.5625 C 18.9375 42.820312 19.292969 42.960938 19.667969 42.960938 C 19.6875 42.960938 19.707031 42.960938 19.730469 42.960938 C 20.125 42.945312 20.492188 42.765625 20.753906 42.46875 L 49.644531 9.429688 C 50.015625 9.003906 50.105469 8.398438 49.871094 7.882812 Z M 19.574219 39.433594 L 5.03125 25.480469 L 14.773438 25.480469 L 18.644531 29.355469 C 18.933594 29.640625 19.324219 29.792969 19.726562 29.773438 C 20.132812 29.757812 20.507812 29.574219 20.769531 29.261719 L 37.078125 9.921875 L 45.378906 9.921875 Z M 19.574219 39.433594 "/>
</g>
</svg>
