<?xml version="1.0" encoding="UTF-8"?>
<svg xmlns="http://www.w3.org/2000/svg" xmlns:xlink="http://www.w3.org/1999/xlink" width="30px" height="30px" viewBox="0 0 30 30" version="1.1">
<g id="surface1">
<path style=" stroke:none;fill-rule:evenodd;fill:rgb(0%,0%,0%);fill-opacity:1;" d="M 27.347656 0 L 27.347656 22.941406 L 23.816406 22.941406 L 23.816406 28.234375 L 26.464844 28.234375 L 26.464844 30 L 7.050781 30 C 5.765625 30 4.53125 29.433594 3.699219 28.445312 C 3.011719 27.636719 2.640625 26.628906 2.640625 25.589844 L 2.640625 4.410156 C 2.640625 1.976562 4.617188 0 7.050781 0 Z M 22.050781 22.941406 L 7.246094 22.941406 C 5.851562 22.941406 4.648438 23.875 4.441406 25.128906 C 4.421875 25.269531 4.40625 25.410156 4.40625 25.554688 L 4.40625 25.589844 C 4.40625 26.222656 4.617188 26.804688 5.042969 27.300781 C 5.550781 27.898438 6.277344 28.234375 7.050781 28.234375 L 22.050781 28.234375 L 22.050781 26.46875 L 6.402344 26.46875 L 6.402344 24.707031 L 22.050781 24.707031 Z M 25.582031 1.765625 L 7.050781 1.765625 C 5.605469 1.765625 4.40625 2.945312 4.40625 4.410156 L 4.40625 22.109375 C 5.199219 21.53125 6.1875 21.175781 7.246094 21.175781 L 25.582031 21.175781 Z M 21.171875 14.117188 L 21.171875 15.882812 L 8.816406 15.882812 L 8.816406 14.117188 Z M 22.050781 5.292969 L 22.050781 12.355469 L 7.9375 12.355469 L 7.9375 5.292969 Z M 20.289062 7.058594 L 9.699219 7.058594 L 9.699219 10.589844 L 20.289062 10.589844 Z M 20.289062 7.058594 "/>
</g>
</svg>
