<?xml version="1.0" encoding="UTF-8"?>
<svg xmlns="http://www.w3.org/2000/svg" xmlns:xlink="http://www.w3.org/1999/xlink" width="30px" height="30px" viewBox="0 0 30 30" version="1.1">
<g id="surface1">
<path style=" stroke:none;fill-rule:nonzero;fill:rgb(0%,0%,0%);fill-opacity:1;" d="M 22.09375 7.007812 C 19.726562 5.894531 17.363281 4.78125 15.003906 3.664062 L 0.171875 10.65625 L 2.710938 11.878906 L 2.5 11.914062 L 2.5 25 L 3.75 25 L 3.75 12.96875 L 4.648438 12.8125 L 5 12.980469 L 5 19.589844 C 5 20.734375 11.507812 24.007812 12.8125 24.652344 C 14.183594 25.328125 15.796875 25.316406 17.160156 24.621094 C 25 20.609375 25 19.867188 25 19.589844 L 25 12.980469 L 29.816406 10.660156 C 29.816406 10.660156 25.066406 8.410156 22.09375 7.007812 Z M 23.75 19.378906 C 21.453125 20.910156 19.0625 22.285156 16.589844 23.507812 C 15.582031 24.023438 14.382812 24.03125 13.363281 23.535156 C 10.882812 22.351562 8.503906 20.96875 6.25 19.402344 L 6.25 13.582031 L 15 17.796875 L 23.75 13.582031 Z M 15 16.414062 L 6.769531 12.449219 L 14.855469 11.054688 L 14.644531 9.820312 L 4.832031 11.511719 L 3.078125 10.667969 L 14.996094 5.046875 C 16.027344 5.539062 25.652344 10.066406 26.925781 10.667969 Z M 15 16.414062 "/>
</g>
</svg>
