<?xml version="1.0" encoding="UTF-8"?>
<svg xmlns="http://www.w3.org/2000/svg" xmlns:xlink="http://www.w3.org/1999/xlink" width="30px" height="30px" viewBox="0 0 30 30" version="1.1">
<g id="surface1">
<path style=" stroke:none;fill-rule:nonzero;fill:rgb(0%,0%,0%);fill-opacity:1;" d="M 14.988281 2.5 C 8.089844 2.5 2.5 8.101562 2.5 15 C 2.5 21.898438 8.089844 27.5 14.988281 27.5 C 21.898438 27.5 27.5 21.898438 27.5 15 C 27.5 8.101562 21.898438 2.5 14.988281 2.5 Z M 23.652344 10 L 19.960938 10 C 19.5625 8.4375 18.988281 6.9375 18.238281 5.550781 C 20.539062 6.335938 22.449219 7.9375 23.652344 10 Z M 15 5.050781 C 16.039062 6.550781 16.847656 8.210938 17.386719 10 L 12.613281 10 C 13.152344 8.210938 13.960938 6.550781 15 5.050781 Z M 5.324219 17.5 C 5.125 16.699219 5 15.863281 5 15 C 5 14.136719 5.125 13.300781 5.324219 12.5 L 9.550781 12.5 C 9.449219 13.324219 9.375 14.148438 9.375 15 C 9.375 15.851562 9.449219 16.675781 9.550781 17.5 Z M 6.347656 20 L 10.039062 20 C 10.4375 21.5625 11.011719 23.0625 11.761719 24.449219 C 9.460938 23.664062 7.550781 22.074219 6.347656 20 Z M 10.039062 10 L 6.347656 10 C 7.550781 7.925781 9.460938 6.335938 11.761719 5.550781 C 11.011719 6.9375 10.4375 8.4375 10.039062 10 Z M 15 24.949219 C 13.960938 23.449219 13.152344 21.789062 12.613281 20 L 17.386719 20 C 16.847656 21.789062 16.039062 23.449219 15 24.949219 Z M 17.925781 17.5 L 12.074219 17.5 C 11.960938 16.675781 11.875 15.851562 11.875 15 C 11.875 14.148438 11.960938 13.3125 12.074219 12.5 L 17.925781 12.5 C 18.039062 13.3125 18.125 14.148438 18.125 15 C 18.125 15.851562 18.039062 16.675781 17.925781 17.5 Z M 18.238281 24.449219 C 18.988281 23.0625 19.5625 21.5625 19.960938 20 L 23.652344 20 C 22.449219 22.0625 20.539062 23.664062 18.238281 24.449219 Z M 20.449219 17.5 C 20.550781 16.675781 20.625 15.851562 20.625 15 C 20.625 14.148438 20.550781 13.324219 20.449219 12.5 L 24.675781 12.5 C 24.875 13.300781 25 14.136719 25 15 C 25 15.863281 24.875 16.699219 24.675781 17.5 Z M 20.449219 17.5 "/>
</g>
</svg>
