<?xml version="1.0" encoding="UTF-8"?>
<svg xmlns="http://www.w3.org/2000/svg" xmlns:xlink="http://www.w3.org/1999/xlink" width="30px" height="30px" viewBox="0 0 30 30" version="1.1">
<g id="surface1">
<path style=" stroke:none;fill-rule:evenodd;fill:rgb(0%,0%,0%);fill-opacity:1;" d="M 14 13.5 L 14 15 L 16 15 L 16 11 L 14 11 Z M 4 13.5 C 4 13.222656 4.222656 13 4.5 13 L 13 13 L 13 11 C 13 10.449219 13.449219 10 14 10 L 16 10 C 16.550781 10 17 10.449219 17 11 L 17 13 L 25.5 13 C 25.777344 13 26 13.222656 26 13.5 C 26 13.777344 25.777344 14 25.5 14 L 17 14 L 17 15 C 17 15.550781 16.550781 16 16 16 L 14 16 C 13.449219 16 13 15.550781 13 15 L 13 14 L 4.5 14 C 4.222656 14 4 13.777344 4 13.5 Z M 15.015625 14.5 C 15.289062 14.5 15.515625 14.277344 15.515625 14 C 15.515625 13.726562 15.289062 13.5 15.015625 13.5 L 15.007812 13.5 C 14.734375 13.5 14.511719 13.726562 14.511719 14 C 14.511719 14.277344 14.738281 14.5 15.015625 14.5 Z M 3.5 5 C 3.226562 5 3 5.222656 3 5.5 L 3 20 L 27 20 L 27 5.5 C 27 5.222656 26.773438 5 26.5 5 Z M 13 4 L 17 4 L 17 3 L 13 3 Z M 11 4 L 12 4 L 12 2.5 C 12 2.222656 12.226562 2 12.5 2 L 17.5 2 C 17.773438 2 18 2.222656 18 2.5 L 18 4 L 19 4 L 19 1.5 C 19 1.222656 18.777344 1 18.5 1 L 11.5 1 C 11.222656 1 11 1.222656 11 1.5 Z M 3.5 4 L 10 4 L 10 1.5 C 10 0.671875 10.671875 0 11.5 0 L 18.5 0 C 19.328125 0 20 0.671875 20 1.5 L 20 4 L 26.5 4 C 27.328125 4 28 4.671875 28 5.5 L 28 20.5 C 28 20.773438 27.777344 21 27.5 21 L 2.5 21 C 2.222656 21 2 20.773438 2 20.5 L 2 5.5 C 2 4.671875 2.671875 4 3.5 4 Z M 19.5 27 L 18 27 L 18 26.5 C 18 26.222656 17.773438 26 17.5 26 C 17.222656 26 17 26.222656 17 26.5 L 17 27.5 C 17 27.777344 17.222656 28 17.5 28 L 19.5 28 C 20.0625 28 20.648438 28.457031 20.886719 29 L 9.113281 29 C 9.351562 28.457031 9.9375 28 10.5 28 L 15.5 28 C 15.777344 28 16 27.777344 16 27.5 C 16 27.226562 15.777344 27 15.5 27 L 13 27 L 13 26.5 C 13 26.222656 12.777344 26 12.5 26 C 12.226562 26 12 26.222656 12 26.5 L 12 27 L 10.5 27 C 9.214844 27 8 28.214844 8 29.5 C 8 29.773438 8.222656 30 8.5 30 L 21.5 30 C 21.777344 30 22 29.773438 22 29.5 C 22 28.214844 20.785156 27 19.5 27 Z M 15.007812 22 C 14.734375 22 14.511719 22.222656 14.511719 22.5 C 14.511719 22.777344 14.738281 23 15.015625 23 C 15.289062 23 15.515625 22.777344 15.515625 22.5 C 15.515625 22.222656 15.289062 22 15.015625 22 Z M 30 4.5 L 30 22.5 C 30 23.902344 28.902344 25 27.5 25 L 2.5 25 C 0.949219 25 0 22.734375 0 21.5 L 0 4.5 C 0.0976562 3.085938 1.191406 2 2.5 2 L 8.5 2 C 8.773438 2 9 2.222656 9 2.5 C 9 2.773438 8.773438 3 8.5 3 L 2.5 3 C 1.625 3 1.050781 3.78125 1 4.535156 L 1 21.5 C 1 22.507812 1.789062 24 2.5 24 L 27.5 24 C 28.355469 24 29 23.355469 29 22.5 L 29 4.5 C 29 3.671875 28.328125 3 27.5 3 L 21.5 3 C 21.226562 3 21 2.773438 21 2.5 C 21 2.222656 21.226562 2 21.5 2 L 27.5 2 C 28.878906 2 30 3.121094 30 4.5 Z M 30 4.5 "/>
</g>
</svg>
